<?xml version="1.0" standalone="no"?>
<!DOCTYPE svg PUBLIC "-//W3C//DTD SVG 20010904//EN"
 "http://www.w3.org/TR/2001/REC-SVG-20010904/DTD/svg10.dtd">
<svg version="1.0" xmlns="http://www.w3.org/2000/svg"
 width="512.000000pt" height="512.000000pt" viewBox="0 0 512.000000 512.000000"
 preserveAspectRatio="xMidYMid meet">
<metadata>
Created by potrace 1.11, written by Peter Selinger 2001-2013
</metadata>
<g transform="translate(0.000000,512.000000) scale(0.100000,-0.100000)"
fill="#000000" stroke="none">
<path d="M377 5105 c-173 -47 -316 -193 -362 -366 -22 -81 -22 -4277 0 -4358
47 -177 202 -330 375 -370 63 -15 4277 -15 4340 0 173 40 328 193 375 370 22
81 22 4277 0 4358 -46 176 -190 320 -366 366 -77 21 -4287 21 -4362 0z m1418
-1424 c343 -90 561 -284 660 -588 74 -224 75 -577 4 -828 -136 -476 -477 -778
-957 -846 -116 -16 -325 -6 -426 20 l-79 21 -23 -24 c-32 -31 -67 -37 -156
-27 -129 14 -183 63 -203 178 -6 40 -12 46 -88 96 -132 86 -202 149 -231 210
-28 57 -27 82 5 90 20 5 155 -20 259 -48 30 -8 56 -13 58 -10 2 2 14 63 27
137 30 177 83 373 149 560 73 203 168 420 213 486 41 60 104 102 152 102 29 0
34 -5 52 -46 40 -89 32 -162 -66 -604 -90 -406 -143 -728 -122 -742 11 -7 189
-34 287 -43 119 -11 257 23 356 87 74 48 194 174 243 257 25 40 60 114 79 164
58 156 66 209 66 437 1 183 -2 214 -23 290 -96 354 -359 478 -786 371 -66 -16
-196 -54 -290 -85 -271 -88 -336 -100 -375 -68 -31 25 -19 62 48 133 131 142
432 291 673 334 122 21 387 14 494 -14z m2359 -6 c350 -92 576 -315 662 -652
46 -183 50 -453 8 -658 -107 -525 -467 -872 -982 -946 -118 -16 -325 -6 -426
21 l-80 21 -16 -20 c-23 -32 -74 -42 -162 -32 -123 14 -176 58 -198 167 -11
52 -13 55 -83 100 -156 101 -235 178 -256 251 -19 66 22 71 214 24 66 -16 122
-28 126 -25 3 2 10 32 13 66 18 156 87 428 163 638 54 147 156 390 186 440 53
88 117 140 174 140 39 0 58 -30 74 -115 13 -69 -2 -160 -86 -540 -68 -308
-112 -544 -122 -662 l-6 -71 39 -11 c143 -37 365 -45 459 -17 216 64 401 264
490 529 38 116 56 237 56 397 0 226 -33 363 -117 490 -132 202 -367 256 -714
167 -74 -19 -218 -62 -320 -95 -216 -71 -293 -84 -328 -55 -33 26 -21 62 45
134 131 141 435 292 674 334 134 23 387 14 513 -20z"/>
</g>
</svg>
